<svg width="178" height="164" viewBox="0 0 178 164" fill="none" xmlns="http://www.w3.org/2000/svg">
<path d="M168.213 84.9722C168.213 84.9722 184.826 106.829 142.04 135.433C99.2521 164.036 39.6012 173.5 27.7309 142.697C15.8606 111.894 26.9434 121.015 72.5512 115.742C118.158 110.47 148.524 62.6299 155.862 67.844C163.196 73.0597 168.213 84.9722 168.213 84.9722Z" fill="#F9A332"/>
<path d="M64.5656 157.757C51.6898 157.757 40.77 154.693 33.8018 147.914C36.8847 146.445 39.3254 144.954 41.3648 143.71C43.6892 142.291 45.572 141.141 46.7414 141.141C46.8665 141.141 46.9837 141.154 47.0922 141.182C47.6863 141.333 48.3118 141.982 49.0043 143.166C51.0083 146.591 53.7442 148.464 56.7366 148.464C56.8569 148.464 56.9774 148.461 57.0985 148.455C60.2663 148.3 63.1879 145.979 64.9141 142.247C65.9378 140.034 67.2747 138.689 69.0002 138.137C69.6398 137.932 70.3536 137.83 71.138 137.83C74.0186 137.83 77.8661 139.208 82.6154 141.948C82.6344 141.958 82.6504 141.968 82.6679 141.978C84.6427 143.161 86.8579 143.879 89.475 143.947C89.6891 143.954 89.9003 143.956 90.1086 143.956C97.3469 143.956 100.762 140.617 102.826 138.599C103.363 138.073 104.176 137.28 104.45 137.257C104.453 137.257 104.693 137.293 105.238 137.842C102.808 140.713 97.8202 146.278 90.1989 146.278C86.9293 146.278 83.1747 145.252 78.9308 142.551C77.0661 141.364 75.1572 140.869 73.4324 140.869C68.506 140.869 65.0794 144.914 68.484 148.453C69.8838 149.908 72.6959 150.413 75.9291 150.413C81.1547 150.413 87.4769 149.092 90.6999 148.321C97.1692 146.727 103.764 144.609 110.318 142.024C111.516 142.562 112.742 142.846 113.9 142.846C115.046 142.846 116.126 142.568 117.046 141.981C117.831 141.481 119.084 140.351 119.405 138.124C127.212 134.502 134.852 130.239 142.039 125.434C158.735 114.271 166.386 104.139 169.508 95.9288C169.524 97.2217 169.427 98.6277 169.167 100.14C168.747 102.602 167.931 105.095 166.734 107.609C162.573 114.636 155.055 122.711 142.039 131.413C117.706 147.68 87.9167 157.757 64.5656 157.757ZM118.044 131.221C117.968 131.048 117.888 130.873 117.805 130.694C117.535 130.118 117.291 129.511 117.072 128.875C117.11 128.875 117.145 128.875 117.183 128.875C125.503 128.875 128.67 124.724 132.506 119.695C133.862 117.917 135.263 116.079 137.061 114.143C140.305 110.648 145.271 110.436 150.074 110.23C153.233 110.095 156.261 109.965 158.563 108.817C152.967 114.424 145.599 108.813 141.19 115.854C136.176 123.863 131.718 129.484 122.247 130.608C120.707 130.791 119.314 130.993 118.044 131.221ZM162.419 102.387C162.442 101.956 162.442 101.503 162.421 101.03C162.254 97.2173 162.234 94.6153 162.644 93.4281C162.866 92.7861 163.153 92.6171 164.67 91.9501C165.668 91.5108 166.946 90.9481 168.543 89.9431C168.773 90.6498 168.985 91.4491 169.154 92.3365C162.896 93.8527 165.336 95.394 162.419 102.387Z" fill="#BF6700"/>
<path d="M154.525 69.3494C154.093 69.3494 153.018 69.5998 150.669 71.2629C147.932 73.202 144.372 76.4039 140.248 80.1096C125.143 93.6892 102.315 114.212 72.7656 117.627C61.9606 118.877 53.1158 119.32 46.0084 119.678C35.0366 120.229 27.7882 120.593 25.8842 123.557C24.0618 126.391 26.0061 132.984 29.4847 142.01C32.3432 149.429 38.2839 154.628 47.1413 157.465C70.0753 164.809 109.547 154.879 141 133.852C157.546 122.791 167.286 111.133 169.168 100.139C170.643 91.5252 166.876 86.3363 166.715 86.1203C166.623 85.9973 166.541 85.8564 166.482 85.7154C166.417 85.5594 161.569 74.2233 154.778 69.3958C154.775 69.3943 154.707 69.3494 154.525 69.3494ZM64.599 163.695C57.7007 163.695 51.45 162.825 46.0036 161.081C36.0075 157.88 29.2706 151.926 25.9793 143.385C21.7681 132.459 20.0033 125.734 22.7282 121.493C25.6795 116.9 32.8335 116.541 45.8211 115.889C52.8751 115.534 61.6531 115.094 72.3376 113.858C100.704 110.579 122.996 90.5384 137.748 77.2782C147.613 68.4091 153.045 63.5231 156.944 66.2945C164.185 71.4429 169.133 82.3636 169.858 84.0327C170.691 85.24 174.446 91.3107 172.898 100.639C170.866 112.907 160.832 125.145 143.079 137.014C127.633 147.34 109.524 155.47 92.0859 159.908C82.1733 162.429 72.9159 163.695 64.599 163.695Z" fill="#6D184E"/>
<path d="M19.8739 123.301C19.8739 123.301 9.01006 121.615 8.03495 129.061C7.06014 136.508 19.0383 133.558 18.8991 139.319C18.7598 145.08 18.6205 152.667 30.8779 147.469C43.1345 142.27 46.4771 135.681 50.3775 142.348C54.2771 149.014 60.5451 147.89 63.4697 141.567C66.3951 135.244 72.1446 134.056 83.408 140.552C89.4343 144.027 92.7042 139.075 96.7953 134.123C100.349 129.821 104.523 125.518 111.663 126.743C127.018 129.378 127.681 121.896 135.897 113.044C144.115 104.191 161.387 113.887 160.83 101.099C160.273 88.3133 161.595 93.1265 169.221 87.5408C176.847 81.9552 176.742 68.8876 161.804 70.0478C146.866 71.2064 109.713 125.268 19.8739 123.301Z" fill="#48C75A"/>
<path d="M160.957 90.4017C161.521 88.0399 164.211 86.6022 169.795 82.2193C170.781 81.444 171.768 80.1581 172.597 78.8663C172.393 81.5481 170.807 84.3922 168.285 86.2406C166.191 87.772 164.642 88.4536 163.396 89.0013C162.369 89.4522 161.571 89.8764 160.957 90.4017Z" fill="#B6E9BD"/>
<path d="M121.797 125.053C126.716 122.363 129.059 116.669 134.514 110.37C141.388 102.432 154.187 107.505 159.146 103.068C158.999 103.945 158.7 104.628 158.239 105.134C156.793 106.723 153.463 106.866 149.938 107.016C144.749 107.238 138.867 107.491 134.734 111.944C132.831 113.994 131.316 115.981 129.979 117.733C127.259 121.299 125.266 123.914 121.797 125.053Z" fill="#B6E9BD"/>
<path d="M24.1361 147.599C23.2714 147.599 22.579 147.426 22.0738 147.077C20.3349 145.881 20.4222 142.265 20.4923 139.358C20.5867 135.472 16.9216 134.322 14.2463 133.483C10.7091 132.373 9.29973 131.681 9.61525 129.272C9.78398 127.984 10.3313 127.005 11.2886 126.278C12.5546 125.318 14.3934 124.921 16.068 124.794C20.8142 132.231 28.0672 136.365 36.5422 136.365C37.6164 136.365 38.7116 136.298 39.8219 136.164C50.3214 134.715 60.8808 132.455 71.4206 129.405C71.8313 129.97 72.235 130.53 72.6331 131.085C73.7025 132.57 74.7395 134.011 75.7879 135.358C74.0934 134.861 72.5426 134.614 71.1271 134.614C70.0146 134.614 68.9846 134.767 68.0357 135.072C65.4493 135.9 63.4271 137.856 62.0258 140.887C60.8084 143.518 58.909 145.146 56.9451 145.242C56.8892 145.245 56.8342 145.245 56.7783 145.245C54.9395 145.245 53.162 143.944 51.7504 141.531C50.5866 139.541 49.3536 138.439 47.8705 138.063C47.4952 137.967 47.1199 137.923 46.7414 137.923C44.6868 137.923 42.5302 139.238 39.714 140.958C37.2804 142.443 34.2519 144.293 30.2594 145.986C27.7328 147.058 25.665 147.599 24.1361 147.599ZM117.331 125.685C116.98 125.685 116.617 125.677 116.241 125.658C115.509 121.68 115.635 116.982 116.793 112.073C130.495 105.68 143.28 98.1774 154.964 89.6608C160.637 85.3816 163.947 79.5882 164.7 73.063C164.796 73.0428 164.889 73.024 164.984 73.0052C165.801 77.8904 164.978 84.2666 158.461 90.2813C145.368 102.364 130.604 105.596 123.918 112.482C119.89 116.631 119.452 121.95 119.741 125.525C119.004 125.63 118.205 125.685 117.331 125.685Z" fill="#539256"/>
<path d="M17.4048 124.744C15.4542 124.744 12.9048 125.052 11.2887 126.279C10.3314 127.006 9.784 127.984 9.6152 129.273C9.29981 131.682 10.709 132.373 14.2464 133.483C16.9216 134.322 20.5867 135.472 20.4922 139.358C20.4222 142.265 20.3348 145.882 22.0738 147.078C23.4735 148.041 26.3039 147.664 30.2593 145.986C34.2517 144.293 37.2802 142.444 39.7139 140.958C43.0486 138.922 45.4595 137.452 47.8704 138.063C49.3536 138.439 50.5864 139.542 51.7502 141.531C53.2043 144.016 55.047 145.324 56.9449 145.243C58.9089 145.147 60.8084 143.519 62.0256 140.887C63.427 137.856 65.449 135.9 68.0355 135.072C71.9634 133.812 77.2509 135.149 84.1986 139.156C88.3857 141.571 90.6474 139.141 94.6108 134.269C98.451 129.545 103.23 123.665 111.93 125.158C122.883 127.039 125.403 123.733 129.979 117.734C131.316 115.981 132.831 113.994 134.734 111.945C138.867 107.492 144.75 107.239 149.938 107.017C153.463 106.866 156.793 106.723 158.238 105.134C158.99 104.307 159.317 103.01 159.236 101.171C158.844 92.1622 159.31 90.7972 163.396 89.0018C164.641 88.4533 166.193 87.7716 168.285 86.2398C171.737 83.7097 173.436 79.3175 172.235 76.0222C171.053 72.7785 167.393 71.224 161.926 71.6513C158.266 71.9346 152.28 76.4086 144.7 82.0734C133.926 90.126 119.169 101.156 98.8369 110.04C74.8369 120.528 48.2535 125.532 19.8392 124.909C19.7708 124.907 19.7023 124.901 19.6338 124.891C19.1436 124.816 18.3434 124.744 17.4048 124.744ZM24.1204 150.808C22.5915 150.808 21.3161 150.45 20.2775 149.735C17.1058 147.552 17.2166 142.966 17.3056 139.28C17.3355 138.033 16.3314 137.505 13.299 136.554C10.2954 135.612 5.75608 134.187 6.45488 128.851C6.73783 126.69 7.72274 124.957 9.38167 123.702C13.1118 120.88 19.0823 121.568 20.0044 121.695C84.4794 123.077 120.984 95.7938 142.803 79.4902C151.416 73.0527 157.107 68.7999 161.681 68.4439C171.502 67.6848 174.426 72.7148 175.228 74.9117C176.931 79.5841 174.798 85.4429 170.158 88.8412C167.783 90.5805 165.984 91.3714 164.67 91.9501C163.153 92.6167 162.866 92.7864 162.644 93.4288C162.234 94.6151 162.255 97.2165 162.422 101.03C162.54 103.766 161.941 105.82 160.588 107.308C158.25 109.88 154.277 110.05 150.074 110.23C145.271 110.436 140.304 110.648 137.062 114.143C135.262 116.079 133.861 117.917 132.505 119.695C127.887 125.75 124.239 130.532 111.394 128.329C104.52 127.149 100.735 131.805 97.0738 136.308C93.4484 140.769 89.3363 145.824 82.6156 141.948C76.571 138.461 71.9901 137.18 69.0001 138.137C67.2745 138.689 65.9377 140.034 64.9141 142.247C63.1877 145.979 60.2662 148.3 57.0984 148.455C53.9653 148.612 51.0893 146.729 49.0041 143.166C48.3118 141.982 47.6863 141.332 47.0921 141.182C45.9701 140.898 43.9377 142.138 41.3647 143.71C38.8421 145.25 35.7027 147.167 31.4954 148.951C28.5739 150.19 26.1292 150.808 24.1204 150.808Z" fill="#6D184E"/>
<path d="M136.201 43.4887C134.264 44.2704 132.599 45.5037 131.232 47.083C122.914 52.8602 104.793 64.4927 81.8033 73.6587C58.8966 83.0258 37.8242 87.2194 27.8518 88.8276C25.7824 88.638 23.7342 88.9043 21.797 89.686C12.9608 93.2542 9.78408 106.195 14.7021 118.589C19.6198 130.983 29.3877 135.807 39.6063 134.57C62.3453 131.434 82.6685 124.829 99.2906 117.728C116.178 111.297 135.407 101.931 154.01 88.3731C162.253 82.1558 166.023 71.8651 161.105 59.4697C156.188 47.0758 145.037 39.9219 136.201 43.4887Z" fill="#DB2839"/>
<path d="M36.4781 133.155C27.3571 133.155 20.056 127.756 16.1816 117.992C15.8865 117.248 15.6207 116.499 15.3838 115.749C15.9912 115.537 16.6144 115.326 17.2493 115.124C16.7992 117.197 16.723 119.328 17.8709 121.089C19.0135 122.841 21.0781 123.835 24.1823 124.13C24.637 124.173 25.0808 124.193 25.5143 124.193C31.9577 124.193 36.1044 119.637 39.1841 116.253C41.0702 114.182 42.8515 112.224 44.3127 112.224C44.3238 112.224 44.3347 112.224 44.345 112.224C45.1987 112.241 46.2097 112.938 47.3507 114.294C51.3934 119.105 56.6811 121.722 62.318 121.721C62.5713 121.721 62.8262 121.716 63.0812 121.705C63.7625 121.676 64.4368 121.609 65.1026 121.504C66.6652 123.207 68.0689 124.937 69.3751 126.649C59.3735 129.486 49.3619 131.602 39.4162 132.974C38.4176 133.095 37.4381 133.155 36.4781 133.155ZM43.8036 116.198C43.5558 116.198 43.337 116.33 43.1341 116.627C42.3291 117.804 40.6098 119.45 38.8001 121.03C37.6089 122.069 37.9644 123.995 39.4304 124.576C42.0513 125.615 44.8453 126.117 47.7118 126.117C48.7276 126.117 49.7529 126.054 50.7821 125.929C50.8135 125.925 50.845 125.921 50.8765 125.916C52.8655 125.641 53.3314 122.954 51.5633 121.995C47.0572 119.551 45.0555 116.198 43.8036 116.198ZM117.999 107.949C119.912 102.49 123.118 96.9517 127.848 92.0066C128.576 92.0676 129.314 92.1045 130.055 92.1045C130.701 92.1045 131.348 92.0761 131.988 92.0108C130.328 93.9321 128.879 95.8024 127.66 97.4881C126.601 98.9525 127.755 100.803 129.297 100.803C129.588 100.803 129.895 100.736 130.203 100.587C134.617 98.4573 139.101 96.1273 143.618 93.5802C135.531 98.8347 126.972 103.635 117.999 107.949ZM142.34 82.3391C142.435 82.0056 142.516 81.6778 142.587 81.3586C150.126 77.3698 156.413 75.142 161.405 73.838C161.338 74.2353 161.259 74.6283 161.169 75.0186C154.06 75.4528 147.716 78.4284 142.34 82.3391Z" fill="#A92142"/>
<path d="M26.5783 90.3766C25.1156 90.3766 23.7111 90.6445 22.3898 91.1788C18.6052 92.7076 15.8528 96.2716 14.6395 101.214C13.3789 106.349 13.9266 112.307 16.1825 117.991C20.4644 128.782 28.9317 134.242 39.4171 132.974C59.1071 130.257 79.0511 124.628 98.6699 116.247C98.6887 116.238 98.7075 116.23 98.7277 116.223C118.661 108.634 136.946 98.8239 153.077 87.0703C161.513 80.7064 163.907 70.8586 159.625 60.0674C155.043 48.5162 144.799 41.7476 136.793 44.9827L136.202 43.4889L136.793 44.9827C135.135 45.6509 133.669 46.7137 132.432 48.1405C132.344 48.241 132.246 48.3298 132.136 48.407C123.409 54.4679 105.342 66.0032 82.3907 75.1536C59.532 84.502 38.5658 88.7285 28.104 90.4159C27.9725 90.4363 27.8387 90.4407 27.7074 90.4291C27.3273 90.3941 26.9512 90.3766 26.5783 90.3766ZM36.5428 136.365C26.1313 136.365 17.5635 130.125 13.2225 119.187C10.7211 112.882 10.1252 106.224 11.5449 100.441C13.0115 94.4663 16.4421 90.116 21.2049 88.1928C23.2735 87.3571 25.4892 87.028 27.7923 87.2086C38.1835 85.5226 58.7656 81.3441 81.2058 72.1675C103.736 63.186 121.493 51.8822 130.168 45.8693C131.711 44.1339 133.541 42.8323 135.609 41.9951C145.246 38.1049 157.349 45.6742 162.585 58.8721C167.373 70.9402 164.525 82.4492 154.965 89.6618C138.595 101.592 120.07 111.532 99.8822 119.221C80.0152 127.706 59.8082 133.407 39.8223 136.164C38.7121 136.298 37.6169 136.365 36.5428 136.365Z" fill="#6D184E"/>
<path d="M17.6457 103.208C17.6457 103.208 6.92086 107.564 4.27464 115.011C2.70245 119.434 7.2247 116.967 14.1042 114.499C18.8063 112.812 24.6092 111.125 30.3202 111.639C35.5346 112.107 37.534 110.53 38.9857 108.953C41.45 106.275 42.3351 103.595 54.6949 110.936C74.3344 122.599 76.145 141.989 89.5158 142.34C94.8709 142.481 97.9469 140.739 100.034 138.999C103.157 136.392 104.06 133.786 107.065 137.493C112.08 143.675 121.585 142.551 116.362 131.38C111.139 120.209 114.448 95.6198 138.126 81.9906C161.804 68.3614 174.478 71.3116 175.593 69.3453C176.708 67.3775 171.414 57.26 154.561 56.98C137.708 56.6984 95.3661 100.117 17.6457 103.208Z" fill="#FCAF15"/>
<path d="M90.0799 140.739C89.908 140.739 89.7348 140.737 89.5572 140.732C83.401 140.57 79.9666 135.8 75.2131 129.195C73.2854 126.517 71.1533 123.554 68.5644 120.587C71.9016 119.326 74.8457 117.054 77.0236 113.978C79.0843 111.069 80.8679 109.957 83.0726 109.957C85.2092 109.957 87.7401 111.003 91.2962 112.473C93.5434 113.4 96.0899 114.453 99.0552 115.417C100.986 116.044 102.881 116.352 104.69 116.352C107.906 116.352 110.854 115.377 113.254 113.477C112.928 114.096 112.638 114.719 112.38 115.342C109.495 116.9 106.659 117.479 103.931 117.479C100 117.479 96.2965 116.276 93.0084 115.072C89.7192 113.868 86.8466 112.665 84.5737 112.665C83.3083 112.665 82.2294 113.038 81.3683 113.992C78.2957 117.395 75.2645 120.793 73.4127 121.841C78.9134 129.394 82.2729 135.748 89.8488 135.946C90.0342 135.951 90.2151 135.954 90.3949 135.954C95.508 135.954 98.4074 134.013 100.362 132.072C102.315 130.131 103.324 128.191 104.655 128.191C105.324 128.191 106.074 128.68 107.065 129.902C108.854 132.107 111.212 133.381 113.271 133.6C114.183 136.358 114.029 138.327 113.242 139.573C111.686 139.339 109.788 138.31 108.3 136.475C107.422 135.392 106.212 134.138 104.633 134.046C104.573 134.043 104.511 134.041 104.451 134.041C102.913 134.041 101.792 135.131 100.609 136.289C98.6743 138.18 96.043 140.739 90.0799 140.739ZM5.70117 115.771C5.72262 115.705 5.74696 115.631 5.775 115.552C6.7402 112.837 8.96994 110.54 11.281 108.768C12.7304 108.738 14.2317 108.623 15.718 108.509C16.6378 108.439 17.5065 108.372 18.3587 108.326C18.4428 108.321 18.5184 108.319 18.5861 108.319C18.8048 108.319 18.9432 108.34 19.022 108.359C19.0998 108.909 18.6678 110.332 18.3122 111.447C15.3922 112.267 12.6934 113.292 10.3691 114.176C8.7383 114.795 6.79605 115.533 5.70117 115.771Z" fill="#D18126"/>
<path d="M30.5146 111.653C39.0492 112.346 38.7952 107.459 42.0003 106.388C35.9327 105.015 37.5508 110.95 30.5146 111.653Z" fill="#F8CE36"/>
<path d="M4.11426 117.052C5.46933 119.165 15.7778 112.205 26.6815 111.589C17.7615 111.042 8.73059 115.647 4.11426 117.052Z" fill="#F8CE36"/>
<path d="M113.899 133.636C113.693 133.636 113.483 133.624 113.269 133.602C113.041 132.911 112.745 132.171 112.375 131.38C110.549 127.475 109.89 121.376 112.38 115.343C112.594 115.226 112.81 115.104 113.025 114.977C112.14 121.333 112.772 127.471 114.921 132.066C115.131 132.516 115.318 132.953 115.478 133.375C114.998 133.549 114.464 133.636 113.899 133.636Z" fill="#FED78A"/>
<path d="M113.907 139.625C113.694 139.625 113.471 139.608 113.241 139.573C114.028 138.328 114.183 136.358 113.27 133.601C113.482 133.624 113.693 133.637 113.899 133.637C114.463 133.637 114.998 133.55 115.479 133.374C116.596 136.283 116.564 138.484 115.344 139.263C114.964 139.504 114.47 139.625 113.907 139.625ZM112.379 115.342C112.636 114.72 112.927 114.096 113.253 113.477C113.256 113.474 113.259 113.472 113.263 113.469C113.174 113.973 113.095 114.475 113.025 114.978C112.81 115.104 112.594 115.226 112.379 115.342Z" fill="#E8C093"/>
<path d="M118.743 98.6684C118.585 97.1492 118.266 95.592 117.78 94.0182C117.069 91.712 117.482 91.1946 117.5 91.1732C117.686 90.9572 118.182 90.8753 118.837 90.8753C120.09 90.8753 121.926 91.1732 123.302 91.3963C123.5 91.4284 123.701 91.4604 123.907 91.4937C121.812 93.8936 120.117 96.3196 118.743 98.6684Z" fill="#D18126"/>
<path d="M43.297 104.585C45.7771 104.585 49.4068 105.929 55.504 109.55C65.2318 115.327 70.7664 123.017 75.2136 129.196C79.9669 135.8 83.4008 140.57 89.5573 140.733C95.8918 140.886 98.6188 138.235 100.609 136.289C101.837 135.087 103.001 133.956 104.634 134.046C106.212 134.138 107.423 135.393 108.3 136.474C110.593 139.301 113.853 140.212 115.344 139.262C116.742 138.371 116.58 135.614 114.921 132.067C111.886 125.574 111.877 116.003 114.898 107.087C117.506 99.3928 123.516 88.5482 137.336 80.5931C154.39 70.7781 165.943 69.4064 171.495 68.7479C172.455 68.6338 173.517 68.5076 174.1 68.3738C173.981 67.8248 173.56 66.7252 172.356 65.317C170.678 63.3552 165.583 58.7716 154.534 58.5876C149.407 58.4873 141.3 63.0343 130.069 69.309C106.286 82.5914 70.3714 102.652 18.001 104.803C16.4523 105.484 7.93837 109.466 5.77529 115.553C5.74725 115.632 5.72282 115.705 5.70157 115.771C6.7963 115.534 8.73854 114.796 10.3695 114.176C15.7081 112.147 23.0226 109.371 30.4621 110.036C35.5145 110.493 36.8717 108.946 38.3077 107.31C39.6839 105.741 40.997 104.585 43.297 104.585ZM90.1091 143.956C89.901 143.956 89.6885 143.953 89.4744 143.947C81.7451 143.745 77.5229 137.878 72.6336 131.085C68.1375 124.839 63.042 117.759 53.8871 112.322C48.9071 109.365 45.519 107.884 43.5299 107.795C42.2442 107.745 41.7595 108.227 40.6942 109.441C39.0663 111.297 36.8347 113.835 30.1796 113.24C23.4623 112.635 16.5445 115.266 11.493 117.185C7.04218 118.877 4.5898 119.809 3.09528 118.326C1.84482 117.084 2.54429 115.115 2.77433 114.468C5.62936 106.434 16.5862 101.905 17.0504 101.717C17.2204 101.648 17.4005 101.609 17.5831 101.601C69.354 99.5418 104.962 79.6548 128.524 66.4941C140.189 59.9806 148.618 55.2769 154.587 55.3727C166.543 55.5719 173.636 60.662 176.286 65.3596C176.919 66.4834 177.852 68.5988 176.978 70.1424C176.253 71.4214 174.787 71.5947 171.867 71.9415C166.523 72.5756 155.406 73.8957 138.917 83.3883C116.983 96.0121 112.512 119.373 117.805 130.694C121.317 138.207 118.445 141.09 117.046 141.981C113.942 143.96 109.016 142.436 105.832 138.511C104.864 137.318 104.454 137.258 104.45 137.257C104.177 137.279 103.364 138.073 102.828 138.599C100.762 140.616 97.348 143.956 90.1091 143.956Z" fill="#6D184E"/>
<path d="M101.895 123.951C101.895 123.951 97.0336 133.07 89.8486 131.959C84.3974 131.116 93.5062 132.189 95.8722 125.532C98.6046 117.837 103.302 121.843 101.895 123.951Z" fill="#F8CE36"/>
<path d="M24.3312 86.6976C24.3312 86.6976 5.11 87.7518 2.81181 98.5006C0.513773 109.25 10.5421 107.142 18.2726 106.721C26.0026 106.299 10.9597 121.264 24.3312 122.528C29.9211 123.057 33.6482 119.829 36.6893 116.6C40.9225 112.107 43.8245 107.613 48.5667 113.254C56.7144 122.949 69.4588 121.896 75.7268 113.044C81.9949 104.192 87.2172 109.883 99.5441 113.887C111.871 117.892 120.228 107.353 116.259 94.496C114.287 88.1131 118.548 89.0037 124.078 89.8928C129.689 90.7951 136.607 91.6975 139.657 85.0123C145.715 71.7333 132.763 69.4155 148.223 66.2543C163.684 63.0915 170.369 62.0388 167.863 53.5032C165.356 44.9661 159.505 38.6436 139.866 47.0745C120.228 55.504 102.469 92.389 24.3312 86.6976Z" fill="#48C75A"/>
<path d="M21.2442 112.752C22.0728 110.175 22.7769 107.951 21.5589 106.354C20.9263 105.523 19.9215 105.105 18.5689 105.105C18.4446 105.105 18.3171 105.107 18.1865 105.114C17.2997 105.163 16.3736 105.233 15.4774 105.303C13.862 105.426 12.1632 105.556 10.5888 105.556C10.4071 105.556 10.2267 105.555 10.0487 105.552C11.1238 101.674 13.1232 97.891 9.55065 97.891C9.45203 97.891 9.34906 97.8925 9.24174 97.8995C7.72115 97.9816 6.11219 98.1288 4.52539 98.2321C5.34762 95.4639 7.5782 93.4599 10.2637 92.0079C10.571 93.5887 10.9272 95.1511 11.3308 96.6951C17.7136 99.9544 24.5961 102.172 31.843 103.413C28.9442 105.924 25.9251 110.679 21.2442 112.752ZM53.3119 111.291C51.5108 111.291 49.6861 110.989 47.9016 110.368C46.9487 109.632 45.9927 109.199 45.0177 109.057C43.0617 107.949 41.2025 106.415 39.5358 104.432C39.5131 104.405 39.4902 104.378 39.4674 104.352C41.7422 104.526 44.0468 104.613 46.3752 104.613C53.485 104.613 60.8271 103.808 68.2973 102.249C67.7686 102.805 67.2359 103.46 66.6961 104.223C63.4558 108.8 58.4846 111.291 53.3119 111.291ZM95.6574 105.927C94.0455 105.927 92.3228 105.652 90.5145 105.065C84.8412 103.222 80.6718 101.022 77.2137 100.046C82.8182 98.4529 88.4648 96.4546 94.1128 94.0741C94.1353 94.0642 94.1591 94.0543 94.183 94.0444C94.1886 94.0416 94.1956 94.0387 94.2026 94.0359C94.2209 94.0288 94.2349 94.0232 94.2531 94.0147C94.2601 94.0119 94.2672 94.009 94.2756 94.0062C94.2924 93.9991 94.3106 93.9906 94.3275 93.9836C94.3331 93.9807 94.3387 93.9793 94.3443 93.9765C94.3668 93.9666 94.3906 93.9567 94.4131 93.9482L94.4145 93.9467C94.4397 93.9368 94.465 93.9255 94.4888 93.9156C94.4902 93.9142 94.4916 93.9142 94.493 93.9142C94.5155 93.9043 94.5365 93.8944 94.5604 93.8845C94.5632 93.8831 94.5688 93.8816 94.573 93.8788C94.5926 93.8703 94.6137 93.8618 94.6347 93.8533C94.6375 93.8519 94.6417 93.8505 94.6445 93.8491C94.667 93.8392 94.6908 93.8293 94.7147 93.8194L94.7161 93.818C94.7666 93.7967 94.8143 93.7755 94.8648 93.7543C94.8662 93.7543 94.869 93.7529 94.8704 93.7529C94.8928 93.743 94.9153 93.733 94.9377 93.7231C94.9405 93.7217 94.9419 93.7217 94.9447 93.7203C95.0443 93.6779 95.1426 93.6368 95.2408 93.5929L95.2436 93.5915C95.468 93.4953 95.6911 93.3991 95.9141 93.3014L95.9184 93.3C96.0166 93.2575 96.1147 93.2137 96.2144 93.1712L96.2172 93.1684C96.3154 93.1259 96.4122 93.0834 96.5118 93.041C96.5146 93.0382 96.5146 93.0382 96.5174 93.0367C96.6156 92.9929 96.711 92.9518 96.8092 92.908C96.812 92.9066 96.8134 92.9065 96.8162 92.9051C96.8372 92.8952 96.8611 92.8853 96.8821 92.8754C96.8863 92.874 96.8863 92.874 96.8891 92.8726C96.9607 92.8414 97.035 92.8075 97.1066 92.7764C97.1094 92.7749 97.1122 92.7735 97.115 92.7707C97.136 92.7622 97.1571 92.7537 97.1767 92.7438C97.1795 92.7424 97.1852 92.741 97.188 92.7381C97.2132 92.7282 97.2329 92.7183 97.2567 92.7084H97.2581C97.3058 92.6858 97.3549 92.6645 97.4026 92.6433C97.4068 92.6405 97.411 92.6391 97.4152 92.6376C97.4335 92.6292 97.4545 92.6193 97.4727 92.6122C97.4784 92.6093 97.4826 92.6079 97.4868 92.6051C97.505 92.5966 97.5275 92.5881 97.5457 92.5796C97.5499 92.5768 97.5541 92.5754 97.5597 92.5726C97.606 92.5527 97.6509 92.5315 97.6972 92.5103C97.7028 92.5074 97.7112 92.5032 97.7182 92.5018C97.7337 92.4947 97.7505 92.4862 97.7673 92.4792C97.7744 92.4749 97.7814 92.4735 97.7884 92.4692C97.8052 92.4622 97.8193 92.4551 97.8361 92.448C97.8445 92.4438 97.8515 92.4409 97.8585 92.4381C97.8768 92.4296 97.8964 92.4211 97.9146 92.4126C97.9174 92.4112 97.9231 92.4084 97.9273 92.407C97.9497 92.3971 97.9736 92.3857 97.996 92.3758C98.0016 92.373 98.0072 92.3702 98.0128 92.3688C98.0283 92.3603 98.0465 92.3532 98.0634 92.3461C98.0704 92.3419 98.0802 92.3376 98.0886 92.3334C98.1026 92.3277 98.1153 92.3206 98.1293 92.315C98.1405 92.3107 98.1489 92.3065 98.1601 92.3008C98.1728 92.2952 98.184 92.2909 98.1966 92.2853C98.2065 92.2796 98.2177 92.2754 98.2275 92.2711C98.2387 92.2654 98.2499 92.2598 98.2612 92.2555C98.2822 92.2456 98.3061 92.2343 98.3271 92.2258C98.3355 92.2216 98.3467 92.2159 98.3552 92.2117C98.3692 92.206 98.3804 92.2003 98.3944 92.1947C98.4029 92.1904 98.4113 92.1862 98.4197 92.1819C98.4337 92.1763 98.4477 92.1692 98.4604 92.1635C98.4688 92.1607 98.4772 92.1565 98.4842 92.1536C98.4997 92.1452 98.5137 92.1395 98.5291 92.1324C98.5305 92.1324 98.5319 92.131 98.5333 92.131C98.5894 92.1041 98.6469 92.0786 98.7045 92.0517C98.7059 92.0517 98.7087 92.0503 98.7115 92.0489C98.7297 92.0404 98.7494 92.0319 98.7676 92.0234L98.769 92.022C101.839 90.6096 104.825 89.1123 107.721 87.5343C109.967 97.6731 104.494 105.927 95.6574 105.927ZM121.107 81.6936C120.007 81.6936 118.891 81.603 117.791 81.47C123.056 77.9701 127.922 74.1702 132.322 70.0943C132.179 71.8251 131.703 73.8348 130.628 76.1897C128.629 80.5699 124.971 81.6936 121.107 81.6936ZM144.594 56.324C146.986 53.0066 149.103 49.5619 150.918 46.0012C150.8 45.745 150.681 45.4889 150.562 45.2341C152.279 44.8874 153.856 44.7133 155.29 44.7133C156.646 44.7133 157.875 44.869 158.971 45.1818C160.802 52.2268 155.921 53.9435 144.594 56.324Z" fill="#539256"/>
<path d="M62.3192 118.505C62.2687 118.505 62.2173 118.505 62.165 118.505C64.9903 117.254 67.5216 115.222 69.4652 112.477C72.0452 108.833 74.4594 107.517 77.2116 107.517C77.8128 107.517 78.4322 107.58 79.0722 107.696C77.5118 108.515 75.9811 109.919 74.4287 112.109C71.6927 115.975 67.5081 118.301 62.9484 118.492C62.7384 118.501 62.5292 118.505 62.3192 118.505Z" fill="#A4E3AD"/>
<path d="M105.669 113.112C111.878 110.223 114.263 102.317 112.415 92.8221C111.682 89.0574 113.307 88.1202 116.067 88.1202C116.167 88.1202 116.268 88.1202 116.37 88.1231C115.881 88.3396 115.452 88.6476 115.09 89.0676C113.654 90.7385 114.2 93.2391 114.736 94.974C116.574 100.924 115.59 106.742 112.169 110.159C110.406 111.921 108.187 112.915 105.669 113.112ZM130.174 88.8859C129.829 88.8859 129.474 88.8772 129.114 88.8598C132.395 88.3687 135.383 86.782 137.212 82.7717C143.633 68.7008 129.907 66.2438 146.29 62.8932C157.539 60.5931 164.401 59.345 166.738 55.8592C166.902 57.3049 166.59 58.0794 166.297 58.5676C164.696 61.2557 158.615 62.4951 149.411 64.3709L147.906 64.6775C142.656 65.7512 140.313 66.7785 139.263 68.4669C138.295 70.0202 138.708 71.6533 139.143 73.3839C139.788 75.9397 140.591 79.1203 138.21 84.3395C136.61 87.8456 133.795 88.8859 130.174 88.8859Z" fill="#A4E3AD"/>
<path d="M18.5685 105.105C19.9211 105.105 20.9259 105.523 21.5585 106.355C22.7851 107.962 22.0628 110.208 21.2265 112.808C20.4617 115.185 19.5946 117.88 20.5349 119.322C21.1037 120.194 22.4304 120.733 24.4801 120.927C30.1162 121.459 33.6868 117.538 36.8365 114.078C39.2364 111.441 41.4963 108.936 44.4091 109.009C46.2425 109.045 48.0003 110.094 49.7825 112.215C53.3578 116.468 58.034 118.7 62.9486 118.492C67.5084 118.3 71.6927 115.975 74.4293 112.11C79.9535 104.309 85.2172 106.486 92.5042 109.497C94.6985 110.403 97.1836 111.43 100.034 112.357C104.869 113.927 109.179 113.147 112.17 110.159C115.59 106.742 116.573 100.924 114.737 94.974C114.2 93.2393 113.654 90.7398 115.092 89.067C116.795 87.0848 120.044 87.611 123.807 88.2211C130.471 89.2999 135.764 89.7008 138.209 84.3391C140.592 79.1204 139.788 75.9385 139.144 73.383C138.707 71.6542 138.295 70.0198 139.262 68.4664C140.313 66.7789 142.656 65.7517 147.907 64.6773L149.411 64.3707C158.615 62.4946 164.696 61.2566 166.298 58.5684C166.698 57.8979 167.137 56.6923 166.335 53.9599C165.071 49.6579 163.2 47.0434 160.443 45.7332C156.228 43.7303 149.514 44.6794 140.491 48.554C135.838 50.551 131.141 54.3386 125.704 58.7261C117.214 65.5704 106.65 74.0919 90.8008 80.3142C72.2695 87.5903 50.5229 90.2048 24.3251 88.3095C22.9205 88.4083 6.30859 89.773 4.36995 98.8398C3.84562 101.294 4.01304 103.039 4.86811 104.028C6.55986 105.986 11.2973 105.624 15.477 105.304C16.3733 105.235 17.2994 105.164 18.1861 105.115C18.3168 105.108 18.4441 105.105 18.5685 105.105ZM25.5147 124.193C25.0812 124.193 24.6374 124.173 24.1826 124.13C21.0785 123.835 19.0139 122.841 17.8713 121.089C16.09 118.357 17.2561 114.73 18.194 111.815C18.5622 110.67 19.1083 108.972 19.0218 108.36C18.9179 108.335 18.7141 108.306 18.3584 108.327C17.5062 108.373 16.6376 108.439 15.7178 108.51C10.5511 108.905 5.2072 109.314 2.46535 106.141C0.891498 104.321 0.495148 101.709 1.2538 98.1618C3.77929 86.3494 23.4107 85.1379 24.2447 85.0922C24.3116 85.0893 24.3793 85.0893 24.4462 85.0952C82.6489 89.3309 106.382 70.1893 123.712 56.2133C129.333 51.6799 134.187 47.7641 139.243 45.5947C149.278 41.2868 156.658 40.3804 161.801 42.8239C165.439 44.5542 167.851 47.8009 169.391 53.0461C170.262 56.0114 170.143 58.3592 169.03 60.2265C166.703 64.1276 160.433 65.4053 150.043 67.5232L148.541 67.8297C144.649 68.6256 142.437 69.4155 141.962 70.1775C141.733 70.5444 141.917 71.3329 142.234 72.5901C142.921 75.3136 143.959 79.4299 141.106 85.6847C137.452 93.6889 128.937 92.3094 123.302 91.3956C121.207 91.0581 118.041 90.5423 117.501 91.1731C117.482 91.1937 117.068 91.7125 117.78 94.0175C120.006 101.226 118.747 108.114 114.412 112.445C110.592 116.264 104.994 117.346 99.055 115.417C96.0893 114.454 93.543 113.401 91.2961 112.473C84.0704 109.486 81.0799 108.25 77.0236 113.978C73.7117 118.657 68.6296 121.472 63.0816 121.705C57.1598 121.952 51.5756 119.321 47.351 114.294C46.2102 112.938 45.1991 112.242 44.3454 112.224C44.3351 112.224 44.3242 112.224 44.3131 112.224C42.852 112.224 41.0706 114.182 39.1845 116.253C36.1048 119.637 31.9582 124.193 25.5147 124.193Z" fill="#6D184E"/>
<path d="M94.1137 94.0745C119.89 83.2075 140.44 66.567 150.918 46.0009C139.274 20.6056 113.987 2.8795 84.5403 2.40046C43.6307 1.73634 9.59597 34.8897 8.8826 76.1587C8.75988 83.2697 9.62141 90.1551 11.3309 96.6953C34.5175 108.536 64.3185 106.634 94.1137 94.0745Z" fill="#F9A332"/>
<path d="M94.6791 3.25978H94.6776H94.6791ZM94.6022 3.24892C94.6007 3.24892 94.6007 3.24737 94.5991 3.24737C94.6007 3.24737 94.6007 3.24892 94.6022 3.24892ZM94.5622 3.24272C94.5607 3.24272 94.5622 3.24271 94.5607 3.24116L94.5622 3.24272ZM94.5253 3.23651C94.5238 3.23651 94.5223 3.23652 94.5192 3.23497C94.5223 3.23652 94.5238 3.23651 94.5253 3.23651ZM94.4838 3.2303H94.4823H94.4838ZM94.3669 3.21324C94.3654 3.21169 94.3654 3.2117 94.3639 3.2117C94.3654 3.2117 94.3654 3.21169 94.3669 3.21324ZM94.1747 3.18376C94.1732 3.18376 94.1716 3.18376 94.1701 3.18376C94.1716 3.18376 94.1732 3.18376 94.1747 3.18376ZM94.1409 3.17911C94.1363 3.17911 94.1332 3.17756 94.1301 3.17756C94.1332 3.17756 94.1363 3.17911 94.1409 3.17911ZM94.1025 3.17291C94.0978 3.17291 94.0932 3.17135 94.0901 3.17135C94.0948 3.1729 94.0963 3.17291 94.1025 3.17291ZM94.0671 3.16825C94.0594 3.1667 94.0548 3.16671 94.0471 3.16516C94.0532 3.16671 94.0609 3.1667 94.0671 3.16825ZM94.0286 3.16205C94.0209 3.16205 94.0148 3.1605 94.0071 3.15895C94.0148 3.1605 94.0194 3.1605 94.0286 3.16205ZM93.9871 3.15584C93.9794 3.15584 93.9748 3.15429 93.9671 3.15429C93.9733 3.15429 93.9794 3.15584 93.9871 3.15584ZM93.9456 3.15119C93.9379 3.14964 93.9348 3.14963 93.9271 3.14808C93.9333 3.14808 93.9379 3.14964 93.9456 3.15119ZM93.9072 3.14498C93.8995 3.14343 93.8918 3.14344 93.8841 3.14189C93.8918 3.14344 93.8979 3.14343 93.9072 3.14498ZM93.8656 3.13878C93.8595 3.13878 93.8518 3.13723 93.8441 3.13568C93.8533 3.13723 93.8579 3.13878 93.8656 3.13878ZM93.8257 3.13257C93.8195 3.13257 93.8118 3.13103 93.8057 3.13103C93.8118 3.13103 93.8195 3.13257 93.8257 3.13257ZM93.7841 3.12792C93.7764 3.12637 93.7718 3.12637 93.7657 3.12481C93.7718 3.12637 93.778 3.12637 93.7841 3.12792ZM93.7441 3.12171C93.7365 3.12016 93.7272 3.12017 93.7195 3.11862C93.7288 3.12017 93.7349 3.12016 93.7441 3.12171ZM93.7042 3.11706C93.6934 3.11395 93.6842 3.11396 93.6719 3.11086C93.6842 3.11396 93.6934 3.11395 93.7042 3.11706ZM93.6642 3.11086C93.6504 3.10931 93.6396 3.10775 93.6257 3.10465C93.6381 3.1062 93.6519 3.10931 93.6642 3.11086ZM93.6165 3.10465C93.6042 3.10155 93.595 3.10154 93.5827 3.09844C93.5934 3.09999 93.6057 3.1031 93.6165 3.10465ZM93.5719 3.09844C93.5627 3.09689 93.5535 3.09534 93.5412 3.09379C93.5535 3.09534 93.5612 3.09689 93.5719 3.09844ZM93.5289 3.09224C93.5212 3.09069 93.5104 3.08914 93.5012 3.08759C93.5119 3.08914 93.5196 3.09069 93.5289 3.09224ZM93.4858 3.08603C93.4766 3.08448 93.4704 3.08293 93.4612 3.08293C93.4689 3.08293 93.4781 3.08448 93.4858 3.08603ZM93.4458 3.07983C93.4366 3.07828 93.4289 3.07828 93.4197 3.07673C93.4289 3.07828 93.4366 3.07828 93.4458 3.07983ZM93.4058 3.07517C93.3966 3.07362 93.3858 3.07207 93.3782 3.07052C93.3858 3.07207 93.3981 3.07362 93.4058 3.07517ZM93.3674 3.06897C93.3566 3.06742 93.3474 3.06742 93.3366 3.06587C93.3474 3.06742 93.3566 3.06742 93.3674 3.06897ZM93.3243 3.06432C93.3151 3.06277 93.3059 3.06121 93.2951 3.05966C93.3059 3.06121 93.3151 3.06277 93.3243 3.06432ZM93.2844 3.05811C93.2736 3.05656 93.2644 3.05501 93.2551 3.05346C93.2644 3.05501 93.2736 3.05656 93.2844 3.05811ZM93.2428 3.0519C93.2321 3.0519 93.2213 3.05036 93.2121 3.04881C93.2213 3.05036 93.2336 3.0519 93.2428 3.0519ZM93.2029 3.04725C93.1921 3.0457 93.1829 3.04415 93.169 3.0426C93.1813 3.04415 93.1921 3.0457 93.2029 3.04725ZM93.1613 3.04105C93.1475 3.0395 93.1367 3.03794 93.1229 3.03639C93.1352 3.03794 93.149 3.0395 93.1613 3.04105ZM93.1229 3.03639C93.1091 3.03483 93.0952 3.03329 93.0814 3.03174C93.0952 3.03329 93.1075 3.03483 93.1229 3.03639ZM93.0814 3.03174C92.9968 3.01932 92.9153 3.00847 92.8307 2.99916C92.9138 3.00847 92.9968 3.01932 93.0814 3.03174ZM92.8276 2.9976C92.8138 2.99605 92.803 2.9945 92.7892 2.99295C92.8 2.9945 92.8153 2.99605 92.8276 2.9976ZM92.7861 2.99295C92.7723 2.9914 92.76 2.98985 92.7461 2.9883C92.76 2.98985 92.7738 2.9914 92.7861 2.99295ZM92.7461 2.98676C92.7169 2.98365 92.6908 2.98054 92.6631 2.97744C92.6908 2.98054 92.7169 2.98365 92.7461 2.98676ZM92.66 2.97744C92.6477 2.97434 92.6354 2.97279 92.62 2.97124C92.6354 2.97279 92.6462 2.97434 92.66 2.97744ZM92.62 2.97124C92.6062 2.96969 92.5939 2.96813 92.5801 2.96658C92.5924 2.96813 92.6077 2.96969 92.62 2.97124ZM92.5785 2.96658C90.3011 2.68114 87.9945 2.49964 85.6601 2.42672C87.9945 2.49964 90.3026 2.68114 92.5785 2.96658ZM85.6584 2.42672C85.6443 2.42672 85.6309 2.42672 85.6168 2.42672C85.6302 2.42672 85.6451 2.42672 85.6584 2.42672ZM85.6152 2.42672C85.6011 2.42517 85.5885 2.42518 85.5743 2.42518C85.5877 2.42518 85.6019 2.42517 85.6152 2.42672ZM85.5728 2.42518C85.5586 2.42363 85.5468 2.42362 85.5327 2.42362C85.5443 2.42362 85.5609 2.42363 85.5728 2.42518ZM85.5279 2.42362C85.5168 2.42362 85.5019 2.42207 85.491 2.42207C85.5027 2.42207 85.516 2.42362 85.5279 2.42362ZM85.4847 2.42207C85.4736 2.42207 85.4587 2.42208 85.4484 2.42053C85.4595 2.42208 85.4728 2.42207 85.4847 2.42207ZM85.4421 2.42053C85.4279 2.42053 85.4178 2.42053 85.4035 2.42053C85.417 2.42053 85.4287 2.42053 85.4421 2.42053ZM85.4004 2.42053C85.3878 2.41898 85.3737 2.41897 85.361 2.41897C85.3729 2.41897 85.3886 2.41898 85.4004 2.42053ZM85.3572 2.41897C85.2714 2.41587 85.1871 2.41432 85.1015 2.41277C85.1871 2.41432 85.2714 2.41587 85.3572 2.41897ZM85.0959 2.41121C85.0833 2.41121 85.0699 2.41121 85.0573 2.41121C85.0715 2.41121 85.0826 2.41121 85.0959 2.41121ZM85.055 2.41121C85.0401 2.41121 85.0306 2.40967 85.0164 2.40967C85.0298 2.40967 85.0416 2.41121 85.055 2.41121ZM85.0078 2.40967C84.9968 2.40967 84.9849 2.40967 84.974 2.40967C84.9858 2.40967 84.996 2.40967 85.0078 2.40967ZM84.9645 2.40967C84.9535 2.40811 84.9432 2.40811 84.9323 2.40811C84.9425 2.40811 84.9543 2.40811 84.9645 2.40967ZM84.9212 2.40811C84.9109 2.40811 84.9008 2.40811 84.8906 2.40811C84.9 2.40811 84.9109 2.40811 84.9212 2.40811ZM84.878 2.40656C84.8685 2.40656 84.8591 2.40656 84.8505 2.40656C84.8607 2.40656 84.8677 2.40656 84.878 2.40656ZM84.8339 2.40656C84.8253 2.40656 84.8165 2.40657 84.8079 2.40501C84.8165 2.40657 84.8261 2.40656 84.8339 2.40656ZM84.7922 2.40501C84.7836 2.40501 84.7741 2.40501 84.7655 2.40501C84.7733 2.40501 84.7836 2.40501 84.7922 2.40501ZM84.7506 2.40501C84.7418 2.40501 84.7324 2.40345 84.723 2.40345C84.7332 2.40345 84.7402 2.40501 84.7506 2.40501ZM84.708 2.40345C84.6986 2.40345 84.6915 2.40345 84.6829 2.40345C84.6915 2.40345 84.6994 2.40345 84.708 2.40345ZM84.6655 2.40345C84.6569 2.40345 84.6483 2.40346 84.6395 2.40191C84.6474 2.40346 84.6569 2.40345 84.6655 2.40345ZM84.6238 2.40191C84.6128 2.40191 84.6019 2.40191 84.5915 2.40191C84.6034 2.40191 84.612 2.40191 84.6238 2.40191ZM84.5822 2.40191C84.5679 2.40191 84.5546 2.4019 84.5396 2.40035C84.553 2.4019 84.5688 2.40191 84.5822 2.40191ZM84.5396 2.40035C84.5027 2.40035 84.4641 2.40035 84.4272 2.3988C84.4648 2.40035 84.5019 2.40035 84.5396 2.40035ZM82.7598 2.39259C82.8574 2.39259 82.9549 2.39105 83.0526 2.39105C83.0635 2.39105 83.0745 2.39105 83.0855 2.39105C82.9761 2.3926 82.8691 2.39259 82.7598 2.39259Z" fill="#FFF6AF"/>
<path d="M16.3584 44.7522C28.3766 19.9236 53.5782 2.73206 82.4812 2.40007C82.5741 2.39697 82.666 2.39542 82.7597 2.39386C82.8692 2.39386 82.9762 2.39232 83.0855 2.39232C83.0934 2.39232 83.1004 2.39232 83.1083 2.39232C83.1878 2.39232 83.2673 2.39232 83.3476 2.39232C83.7063 2.39232 84.0666 2.39542 84.4271 2.40007C84.464 2.40007 84.5026 2.40162 84.5396 2.40162C84.5546 2.40162 84.5679 2.40163 84.5821 2.40318C84.5851 2.40318 84.5876 2.40318 84.5915 2.40318C84.6018 2.40318 84.6128 2.40318 84.6237 2.40318C84.6285 2.40318 84.6341 2.40318 84.6394 2.40318C84.6482 2.40318 84.6568 2.40318 84.6654 2.40473C84.6702 2.40473 84.6773 2.40473 84.6828 2.40473C84.6914 2.40473 84.6985 2.40473 84.708 2.40473C84.7126 2.40473 84.7182 2.40473 84.7229 2.40473C84.7323 2.40473 84.7418 2.40474 84.7505 2.40629C84.756 2.40629 84.7598 2.40629 84.7654 2.40629C84.774 2.40629 84.7835 2.40629 84.7921 2.40629C84.7977 2.40629 84.8032 2.40629 84.8078 2.40629C84.8166 2.40629 84.8252 2.40628 84.8338 2.40783C84.8393 2.40783 84.8456 2.40783 84.8504 2.40783C84.859 2.40783 84.8686 2.40783 84.8779 2.40783C84.881 2.40783 84.8866 2.40783 84.8906 2.40783C84.9007 2.40783 84.911 2.40938 84.9212 2.40938C84.9267 2.40938 84.9275 2.40938 84.9322 2.40938C84.9433 2.40938 84.9534 2.40938 84.9645 2.40938C84.9676 2.40938 84.9707 2.40938 84.9739 2.40938C84.985 2.41093 84.9967 2.41094 85.0077 2.41094C85.0093 2.41094 85.0148 2.41094 85.0163 2.41094C85.0305 2.41094 85.04 2.41093 85.0549 2.41248H85.0574C85.0698 2.41248 85.0832 2.41248 85.0958 2.41248C85.0974 2.41248 85.0991 2.41248 85.1014 2.41248C85.1872 2.41558 85.2713 2.41714 85.3571 2.42024C85.3586 2.42024 85.3594 2.42024 85.3611 2.42024C85.3736 2.42024 85.3879 2.42024 85.4003 2.42024C85.402 2.42024 85.402 2.42024 85.4035 2.42024C85.4177 2.42179 85.4278 2.4218 85.4421 2.4218C85.4437 2.4218 85.446 2.4218 85.4485 2.4218C85.4586 2.4218 85.4735 2.42334 85.4846 2.42334C85.4861 2.42334 85.4894 2.42334 85.4909 2.42334C85.5018 2.42334 85.5169 2.42334 85.5278 2.42489C85.531 2.42489 85.5295 2.42489 85.5326 2.42489C85.5467 2.42489 85.5586 2.4249 85.5727 2.42645C85.5742 2.42645 85.5719 2.4249 85.5742 2.42645C85.5884 2.42645 85.601 2.42645 85.6151 2.42645H85.6167C85.631 2.428 85.6443 2.428 85.6585 2.428C85.66 2.428 85.6577 2.428 85.66 2.428C87.9942 2.50091 90.3008 2.68241 92.5782 2.96785H92.5798C92.5936 2.9694 92.6059 2.97096 92.6198 2.97251C92.6351 2.97406 92.6474 2.97561 92.6613 2.97716L92.6644 2.97871C92.6905 2.98181 92.7166 2.98492 92.7459 2.98803C92.7597 2.99113 92.772 2.99112 92.7858 2.99422C92.7874 2.99422 92.7874 2.99422 92.7889 2.99422C92.8028 2.99577 92.8135 2.99732 92.8274 2.99887C92.8289 2.99887 92.8289 2.99887 92.8304 2.99887C92.915 3.00973 92.998 3.0206 93.0811 3.03146C93.0949 3.03456 93.1088 3.0361 93.1226 3.03765C93.1365 3.03921 93.1472 3.04077 93.1611 3.04232C93.1626 3.04232 93.1687 3.04387 93.1703 3.04387C93.1826 3.04542 93.1918 3.04697 93.2041 3.04852C93.2072 3.04852 93.2072 3.04853 93.2118 3.05008C93.221 3.05008 93.2318 3.05162 93.2426 3.05317C93.2472 3.05472 93.2502 3.05473 93.2549 3.05473C93.2641 3.05628 93.2733 3.05783 93.2841 3.05938C93.2871 3.05938 93.2918 3.06092 93.2948 3.06092C93.3071 3.06248 93.3148 3.06403 93.3241 3.06403C93.3271 3.06558 93.3333 3.06559 93.3363 3.06559C93.3471 3.06714 93.3563 3.06869 93.3671 3.07024C93.3702 3.07024 93.3748 3.07178 93.3779 3.07178C93.3856 3.07334 93.3963 3.07489 93.4055 3.07644C93.4102 3.07644 93.4148 3.07645 93.4194 3.078C93.4286 3.07955 93.4363 3.07955 93.4455 3.0811C93.4517 3.08265 93.4548 3.08265 93.4609 3.08265C93.4701 3.0842 93.4763 3.08575 93.4855 3.0873C93.4901 3.0873 93.4963 3.08886 93.5024 3.08886C93.5101 3.09041 93.5209 3.09195 93.5286 3.09195C93.5316 3.0935 93.5393 3.09351 93.5424 3.09505C93.5532 3.09661 93.5624 3.09661 93.5732 3.09816C93.5762 3.09971 93.5793 3.0997 93.5824 3.0997C93.5947 3.10126 93.6055 3.10282 93.6162 3.10437C93.6193 3.10437 93.6239 3.10592 93.6255 3.10592C93.6393 3.10747 93.6501 3.10903 93.6639 3.11213C93.667 3.11213 93.6685 3.11213 93.6716 3.11213C93.6839 3.11368 93.6931 3.11523 93.7054 3.11678C93.7085 3.11833 93.7146 3.11834 93.7193 3.11988C93.7269 3.11988 93.7362 3.12143 93.7454 3.12297C93.7516 3.12453 93.7592 3.12453 93.7654 3.12608C93.7731 3.12608 93.7777 3.12764 93.7838 3.12764C93.79 3.12919 93.7992 3.13073 93.8054 3.13073C93.8131 3.13228 93.8192 3.13384 93.8254 3.13384C93.8315 3.13539 93.8377 3.13539 93.8454 3.13694C93.8515 3.1385 93.8592 3.1385 93.8653 3.14005C93.8715 3.1416 93.8792 3.14161 93.8838 3.14315C93.8915 3.14315 93.8992 3.1447 93.9069 3.14624C93.913 3.14624 93.9207 3.1478 93.9269 3.14935C93.9345 3.14935 93.9376 3.15091 93.9453 3.15091C93.9515 3.15246 93.9607 3.154 93.9668 3.154C93.9745 3.15555 93.9791 3.15711 93.9868 3.15711C93.993 3.15866 94.0007 3.16021 94.0084 3.16021C94.0145 3.16177 94.0207 3.16177 94.0283 3.16332C94.0345 3.16487 94.0406 3.16488 94.0468 3.16642C94.0545 3.16798 94.0591 3.16796 94.0668 3.16951C94.0729 3.16951 94.0837 3.17107 94.0899 3.17262C94.0929 3.17262 94.0975 3.17418 94.1022 3.17418C94.1114 3.17573 94.1206 3.17728 94.1298 3.17883C94.1329 3.17883 94.136 3.17883 94.1406 3.18038C94.1498 3.18193 94.1606 3.18348 94.1698 3.18503C94.1714 3.18503 94.1729 3.18503 94.1744 3.18503C94.2359 3.19434 94.3021 3.20366 94.3636 3.21296C94.3651 3.21296 94.3651 3.21296 94.3666 3.21296C94.3928 3.21762 94.4189 3.22072 94.4451 3.22537C94.4574 3.22692 94.4697 3.22847 94.482 3.23157H94.4851C94.4958 3.23312 94.5081 3.23468 94.5204 3.23623C94.522 3.23623 94.5235 3.23778 94.525 3.23778C94.5373 3.23933 94.5466 3.24088 94.5604 3.24243C94.562 3.24243 94.5604 3.24243 94.5619 3.24243C94.5758 3.24553 94.585 3.24709 94.5989 3.24864C94.6004 3.24864 94.6004 3.24864 94.6019 3.24864C94.6142 3.25174 94.6281 3.25328 94.6388 3.25484C94.6527 3.25639 94.665 3.2595 94.6773 3.26105H94.6788C117.971 6.86007 137.705 21.3508 148.622 41.4153C135.949 23.5598 116.23 11.1448 93.5686 8.29192C93.0888 11.0548 88.5647 13.222 83.0525 13.222C77.6374 13.222 73.1769 11.1308 72.5662 8.43774C59.2025 10.3195 46.8453 15.5675 36.3946 23.3085C36.4133 23.2728 36.4322 23.2387 36.4504 23.203V23.2046C36.341 23.3054 36.2323 23.4078 36.1238 23.5102C28.3443 29.3229 21.631 36.5256 16.3584 44.7522Z" fill="#FCD199"/>
<path d="M94.1123 94.0751C94.1358 94.0648 94.1593 94.0556 94.1828 94.0452C94.1593 94.0556 94.1348 94.0648 94.1123 94.0751ZM94.2023 94.037C94.2196 94.0298 94.235 94.0236 94.2524 94.0164C94.234 94.0236 94.2207 94.0298 94.2023 94.037ZM94.2749 94.006C94.2912 93.9988 94.3106 93.9916 94.326 93.9844C94.3096 93.9916 94.2922 93.9988 94.2749 94.006ZM94.3444 93.9772C94.3679 93.9669 94.3883 93.9576 94.4118 93.9483C94.3904 93.9576 94.3669 93.9679 94.3444 93.9772ZM94.4149 93.9473C94.4394 93.9369 94.463 93.9266 94.4885 93.9163C94.464 93.9266 94.4394 93.9369 94.4149 93.9473ZM94.4926 93.9143C94.5141 93.905 94.5376 93.8957 94.5591 93.8854C94.5366 93.8957 94.5151 93.905 94.4926 93.9143ZM94.5723 93.8802C94.5938 93.872 94.6122 93.8637 94.6337 93.8544C94.6132 93.8627 94.5928 93.872 94.5723 93.8802ZM94.6439 93.8493C94.6674 93.84 94.6899 93.8307 94.7134 93.8204C94.6909 93.8307 94.6674 93.84 94.6439 93.8493ZM94.7155 93.8194C94.7666 93.7977 94.8136 93.7771 94.8637 93.7554C94.8146 93.7771 94.7656 93.7977 94.7155 93.8194ZM94.8698 93.7534C94.8923 93.7441 94.9148 93.7338 94.9373 93.7245C94.9138 93.7338 94.8933 93.7441 94.8698 93.7534ZM94.9445 93.7214C95.0436 93.6791 95.1418 93.6368 95.2409 93.5946C95.1418 93.6368 95.0436 93.6791 94.9445 93.7214ZM95.243 93.5925C95.4679 93.4956 95.6897 93.3996 95.9146 93.3027C95.6907 93.3996 95.4669 93.4966 95.243 93.5925ZM95.9177 93.3006C96.0169 93.2573 96.114 93.215 96.2132 93.1717C96.115 93.214 96.0158 93.2584 95.9177 93.3006ZM96.2162 93.1697C96.3144 93.1274 96.4125 93.0841 96.5106 93.0407C96.4125 93.0841 96.3144 93.1274 96.2162 93.1697ZM96.5168 93.0376C96.6129 92.9954 96.712 92.951 96.8092 92.9087C96.711 92.952 96.6149 92.9943 96.5168 93.0376ZM96.8163 92.9056C96.8368 92.8963 96.8603 92.886 96.8817 92.8757C96.8613 92.886 96.8368 92.8963 96.8163 92.9056ZM96.8879 92.8737C96.9594 92.8417 97.0341 92.8087 97.1056 92.7767C97.0341 92.8087 96.9605 92.8417 96.8879 92.8737ZM97.1148 92.7726C97.1373 92.7623 97.1547 92.7551 97.1762 92.7447C97.1567 92.754 97.1353 92.7633 97.1148 92.7726ZM97.1884 92.7396C97.212 92.7293 97.2334 92.72 97.2569 92.7097C97.2334 92.72 97.213 92.7293 97.1884 92.7396ZM97.2569 92.7087C97.305 92.687 97.354 92.6653 97.4021 92.6447C97.354 92.6653 97.305 92.687 97.2569 92.7087ZM97.4144 92.6385C97.4338 92.6303 97.4542 92.621 97.4726 92.6127C97.4542 92.621 97.4338 92.6303 97.4144 92.6385ZM97.4859 92.6065C97.5064 92.5973 97.5248 92.589 97.5452 92.5797C97.5268 92.589 97.5054 92.5973 97.4859 92.6065ZM97.5585 92.5736C97.6055 92.5529 97.6505 92.5323 97.6965 92.5117C97.6505 92.5323 97.6055 92.5529 97.5585 92.5736ZM97.718 92.5024C97.7344 92.4941 97.7497 92.4869 97.7671 92.4797C97.7507 92.4869 97.7333 92.4952 97.718 92.5024ZM97.7885 92.4704C97.8039 92.4632 97.8202 92.456 97.8356 92.4488C97.8192 92.456 97.8049 92.4622 97.7885 92.4704ZM97.8581 92.4384C97.8765 92.4302 97.8949 92.422 97.9133 92.4137C97.8959 92.4209 97.8754 92.4312 97.8581 92.4384ZM97.9265 92.4075C97.948 92.3972 97.9736 92.3858 97.995 92.3766C97.9725 92.3869 97.949 92.3972 97.9265 92.4075ZM98.0124 92.3693C98.0298 92.3611 98.0451 92.3539 98.0625 92.3467C98.0462 92.3539 98.0288 92.3621 98.0124 92.3693ZM98.0881 92.3343C98.1014 92.3281 98.1147 92.3219 98.129 92.3157C98.1147 92.3219 98.1014 92.3281 98.0881 92.3343ZM98.1596 92.3023C98.1719 92.2972 98.1831 92.291 98.1964 92.2858C98.1831 92.291 98.1719 92.2961 98.1596 92.3023ZM98.2271 92.2714C98.2373 92.2662 98.2496 92.2611 98.2608 92.2559C98.2486 92.2611 98.2383 92.2662 98.2271 92.2714ZM98.3263 92.226C98.3365 92.2208 98.3457 92.2178 98.3549 92.2126C98.3467 92.2167 98.3355 92.2219 98.3263 92.226ZM98.3937 92.1951C98.4019 92.192 98.4121 92.1868 98.4193 92.1827C98.4111 92.1868 98.4019 92.1909 98.3937 92.1951ZM98.4602 92.1641C98.4684 92.161 98.4765 92.1569 98.4837 92.1538C98.4765 92.1569 98.4684 92.161 98.4602 92.1641ZM98.5277 92.1332C98.5297 92.1332 98.5318 92.1321 98.5328 92.1311C98.5318 92.1321 98.5297 92.1332 98.5277 92.1332ZM98.7035 92.0527C98.7055 92.0517 98.7076 92.0517 98.7107 92.0496C98.7086 92.0507 98.7055 92.0517 98.7035 92.0527ZM98.7669 92.0239L98.7689 92.0228L98.7669 92.0239Z" fill="#5B6D54"/>
<path d="M46.3886 104.608C40.6857 104.608 35.1322 104.089 29.7887 103.026C27.1519 102.369 24.5688 101.577 22.0509 100.637C17.4093 98.9037 14.0849 94.75 13.3303 89.815C12.6914 85.6343 12.3939 81.3412 12.4695 76.964C12.8337 55.8839 21.8966 36.9282 36.1244 23.5095C36.2148 23.4412 36.3045 23.3743 36.395 23.3074C31.002 33.4547 27.8499 44.988 27.6383 57.2386C27.6343 57.4691 27.6311 57.6996 27.6295 57.9301C27.5218 70.7826 36.5791 81.825 49.0977 84.2213C54.2673 85.2103 59.6281 85.6926 65.1304 85.6926C80.3257 85.6926 96.5993 82.0114 112.869 75.154C124.416 70.2859 134.909 64.2553 143.922 57.2371C133.337 71.4955 117.607 83.3504 98.7702 92.0221L98.7674 92.0235C98.749 92.0321 98.7307 92.0406 98.7109 92.0491C98.7081 92.0506 98.7067 92.052 98.7039 92.052C98.6461 92.079 98.591 92.1046 98.5332 92.1302C98.5318 92.1317 98.5304 92.1331 98.529 92.1331C98.5135 92.1402 98.4994 92.1459 98.4853 92.153C98.4768 92.1559 98.4683 92.1601 98.4613 92.163C98.4472 92.1701 98.4345 92.1758 98.4204 92.1829C98.4133 92.1857 98.402 92.1914 98.3936 92.1943C98.3795 92.2 98.3696 92.2057 98.3555 92.2114C98.3456 92.2171 98.3371 92.2199 98.3273 92.2256C98.3047 92.2341 98.2835 92.2455 98.261 92.2555C98.2497 92.2597 98.2384 92.2654 98.2271 92.2711C98.2172 92.2754 98.206 92.2797 98.1961 92.2854C98.1834 92.2911 98.1721 92.2953 98.1608 92.301C98.151 92.3053 98.1397 92.3095 98.1298 92.3152C98.1157 92.3209 98.1016 92.328 98.0889 92.3337C98.0804 92.338 98.072 92.3409 98.0635 92.3465C98.0452 92.3537 98.0296 92.3608 98.0127 92.3679C98.0057 92.3707 98.0014 92.3736 97.9958 92.3764C97.9746 92.385 97.9492 92.3963 97.9281 92.4077C97.9224 92.4092 97.9196 92.4106 97.914 92.412C97.8956 92.422 97.8773 92.4291 97.859 92.4376C97.8519 92.4405 97.8435 92.4447 97.8364 92.449C97.8209 92.4561 97.8054 92.4632 97.7884 92.4703C97.7814 92.4732 97.7743 92.476 97.7673 92.4789C97.7504 92.486 97.7348 92.4931 97.7179 92.5016C97.7123 92.5045 97.7038 92.5073 97.6967 92.5116C97.6502 92.5315 97.6051 92.5529 97.5599 92.5728C97.5543 92.5756 97.55 92.5771 97.5458 92.5799C97.5261 92.5884 97.5077 92.597 97.4866 92.6055C97.4823 92.6084 97.4781 92.6098 97.4739 92.6112C97.4541 92.6198 97.4344 92.6297 97.416 92.6383C97.4104 92.6397 97.4076 92.6411 97.4034 92.6439C97.3554 92.6653 97.306 92.6866 97.2581 92.708H97.2567C97.2341 92.7194 97.2129 92.7279 97.1889 92.7393C97.1861 92.7407 97.1805 92.7421 97.1762 92.745C97.1551 92.7535 97.1382 92.7621 97.1156 92.772C97.1114 92.7734 97.1099 92.7749 97.1057 92.7763C97.0352 92.8076 96.9604 92.8417 96.8885 92.8731C96.8857 92.8745 96.8857 92.8745 96.8829 92.8759C96.8603 92.8844 96.8377 92.8958 96.8166 92.9044C96.8137 92.9058 96.8123 92.9072 96.8095 92.9072C96.7122 92.9513 96.6134 92.994 96.5175 93.0367C96.5161 93.0381 96.5119 93.0395 96.5119 93.041C96.4131 93.0837 96.3158 93.1263 96.2171 93.169C96.2157 93.1705 96.2157 93.1704 96.2143 93.1704C96.1141 93.2146 96.0182 93.2558 95.918 93.2999C95.9166 93.3014 95.9152 93.3014 95.9152 93.3014C95.6909 93.3996 95.4681 93.4949 95.2438 93.5917L95.241 93.5931C95.1422 93.6358 95.0435 93.6785 94.9447 93.7211C94.9419 93.7211 94.9405 93.7226 94.9377 93.724C94.9151 93.734 94.8925 93.7425 94.87 93.7525C94.8686 93.7539 94.8658 93.7553 94.8643 93.7553C94.8136 93.7766 94.767 93.7966 94.7162 93.8179C94.7162 93.8193 94.7162 93.8193 94.7134 93.8193C94.6908 93.8293 94.6683 93.8393 94.6443 93.8492C94.6415 93.8506 94.6387 93.8521 94.6344 93.8535C94.6133 93.8634 94.5949 93.8706 94.5724 93.8791C94.5681 93.8805 94.5639 93.8834 94.5597 93.8848C94.5385 93.8948 94.5145 93.9047 94.4934 93.9133C94.492 93.9133 94.4905 93.9147 94.4891 93.9147C94.4637 93.9261 94.4398 93.936 94.4158 93.946C94.413 93.9474 94.413 93.9474 94.413 93.9474C94.389 93.9574 94.3692 93.9659 94.3453 93.9759C94.3382 93.9787 94.3326 93.9816 94.3269 93.983C94.3114 93.9901 94.2917 93.9986 94.2761 94.0057C94.2691 94.0086 94.2606 94.0114 94.2536 94.0157C94.2352 94.0228 94.2197 94.0285 94.2028 94.0371C94.1957 94.0385 94.1887 94.0427 94.183 94.0442C94.1591 94.0556 94.1365 94.0641 94.1125 94.074C77.8459 100.931 61.581 104.608 46.3886 104.608Z" fill="#BF6700"/>
<path d="M36.124 23.5087C36.2325 23.4062 36.3412 23.3051 36.4506 23.204V23.2026C36.4324 23.2382 36.4136 23.2723 36.3947 23.3079C36.3042 23.3749 36.2145 23.4418 36.124 23.5087Z" fill="#D19982"/>
<path d="M46.7931 31.101C46.022 33.5468 44.69 35.3369 43.8417 35.0653C42.9936 34.7923 42.9306 32.5561 43.7016 30.1089C44.4719 27.6631 45.8048 25.8731 46.6531 26.1447C47.4478 26.4008 47.5627 28.3851 46.9151 30.6915L46.7931 31.101Z" fill="#FCE69F"/>
<path d="M59.381 32.6767C58.9459 35.2071 57.8663 37.1622 56.989 37.0085C56.1125 36.8549 55.7489 34.6471 56.184 32.1182C56.6199 29.5878 57.6995 27.6328 58.576 27.7864C59.3983 27.9302 59.7782 29.881 59.447 32.255L59.381 32.6767Z" fill="#FCE69F"/>
<path d="M75.6312 32.1686C75.9855 34.7114 75.5523 36.9064 74.6705 37.0307C73.7888 37.1564 72.7728 35.1666 72.4185 32.6238C72.0641 30.0824 72.4988 27.8873 73.3791 27.763C74.2055 27.6457 75.1605 29.3842 75.5661 31.7469L75.6312 32.1686Z" fill="#FCE69F"/>
<path d="M89.2207 26.9114C90.5674 29.0895 91.0525 31.2733 90.2981 31.7485C89.5436 32.2236 87.8132 30.8209 86.4679 28.6428C85.1197 26.4647 84.6346 24.2809 85.389 23.8057C86.097 23.3605 87.6694 24.5598 88.9894 26.5529L89.2207 26.9114Z" fill="#FCE69F"/>
<path d="M99.6431 18.1929C101.449 20.0039 102.415 22.0179 101.787 22.6549C101.158 23.2905 99.159 22.3239 97.3551 20.5129C95.5511 18.7019 94.5828 16.6879 95.2113 16.0509C95.8005 15.455 97.6015 16.2598 99.3398 17.8957L99.6431 18.1929Z" fill="#FCE69F"/>
<path d="M48.4691 72.6176C47.622 72.6176 46.9375 71.926 46.9375 71.0725C46.9375 70.218 47.622 69.5263 48.4691 69.5263C49.3151 69.5263 50.0007 70.218 50.0007 71.0725C50.0007 71.926 49.3151 72.6176 48.4691 72.6176Z" fill="#BF6700"/>
<path d="M73.1795 57.9347C72.3336 57.9347 71.6475 57.2424 71.6475 56.3891C71.6475 55.5346 72.3336 54.8424 73.1795 54.8424C74.0253 54.8424 74.7115 55.5346 74.7115 56.3891C74.7115 57.2424 74.0253 57.9347 73.1795 57.9347Z" fill="#BF6700"/>
<path d="M78.2433 74.0194C77.3958 74.0194 76.7109 73.3274 76.7109 72.4747C76.7109 71.6209 77.3958 70.9289 78.2433 70.9289C79.0885 70.9289 79.7745 71.6209 79.7745 72.4747C79.7745 73.3274 79.0885 74.0194 78.2433 74.0194Z" fill="#E99335"/>
<path d="M93.0275 55.1C92.1808 55.1 91.4961 54.408 91.4961 53.5538C91.4961 52.7009 92.1808 52.0089 93.0275 52.0089C93.8742 52.0089 94.5602 52.7009 94.5602 53.5538C94.5602 54.408 93.8742 55.1 93.0275 55.1Z" fill="#E99335"/>
<path d="M108.844 67.7493C107.998 67.7493 107.312 67.0571 107.312 66.2047C107.312 65.3499 107.998 64.6589 108.844 64.6589C109.691 64.6589 110.377 65.3499 110.377 66.2047C110.377 67.0571 109.691 67.7493 108.844 67.7493Z" fill="#BF6700"/>
<path d="M110.893 44.3628C110.047 44.3628 109.361 43.671 109.361 42.8177C109.361 41.9631 110.047 41.2712 110.893 41.2712C111.74 41.2712 112.425 41.9631 112.425 42.8177C112.425 43.671 111.74 44.3628 110.893 44.3628Z" fill="#BF6700"/>
<path d="M121.906 31.118C121.061 31.118 120.374 30.4265 120.374 29.5734C120.374 28.7202 121.061 28.0274 121.906 28.0274C122.752 28.0274 123.439 28.7202 123.439 29.5734C123.439 30.4265 122.752 31.118 121.906 31.118Z" fill="#BF6700"/>
<path d="M48.7752 56.5659C47.9294 56.5659 47.2432 55.8739 47.2432 55.0197C47.2432 54.1668 47.9294 53.4748 48.7752 53.4748C49.6218 53.4748 50.308 54.1668 50.308 55.0197C50.308 55.8739 49.6218 56.5659 48.7752 56.5659Z" fill="#E99335"/>
<path d="M136.935 45.6754C136.089 45.6754 135.403 44.9839 135.403 44.1306C135.403 43.2773 136.089 42.5845 136.935 42.5845C137.782 42.5845 138.467 43.2773 138.467 44.1306C138.467 44.9839 137.782 45.6754 136.935 45.6754Z" fill="#BF6700"/>
<path d="M127 62.5545C126.155 62.5545 125.468 61.8617 125.468 61.0084C125.468 60.1551 126.155 59.4635 127 59.4635C127.846 59.4635 128.532 60.1551 128.532 61.0084C128.532 61.8617 127.846 62.5545 127 62.5545Z" fill="#E99335"/>
<path d="M83.3252 3.99944C43.7339 3.99944 11.1687 36.1356 10.4764 76.1877C10.4031 80.4364 10.6919 84.704 11.3356 88.8714C11.9996 93.1734 14.9047 96.7812 18.9184 98.2881C39.7515 106.106 66.2375 104.082 93.4981 92.5903C116.645 82.8328 134.618 68.8735 145.471 52.2193C147.951 48.4176 148.057 43.4607 145.744 39.5933C132.669 17.7212 109.779 4.41839 84.515 4.00883C84.1184 4.00258 83.7204 3.99944 83.3252 3.99944ZM46.3517 106.223C36.1007 106.223 26.5295 104.576 17.8065 101.302C12.7133 99.3906 9.02663 94.8163 8.18523 89.3654C7.51397 85.0182 7.21243 80.5646 7.28898 76.1314C7.64134 55.7458 15.8953 36.6624 30.5305 22.3982C45.1619 8.13878 64.3522 0.454124 84.5661 0.793343C97.6664 1.00594 110.534 4.64191 121.78 11.3074C132.7 17.7805 141.931 26.9878 148.474 37.9317C151.417 42.8542 151.284 49.1554 148.136 53.9857C136.932 71.1777 118.463 85.5528 94.7269 95.5572C80.9766 101.354 67.4595 104.828 54.5504 105.882C51.7729 106.109 49.0387 106.223 46.3517 106.223Z" fill="#6D184E"/>
<path d="M129.084 153.639C128.167 158.636 123.406 161.935 118.451 161.009C113.499 160.082 110.227 155.279 111.147 150.282C111.686 147.346 112.853 148.012 114.756 148.679C116.092 149.148 117.789 149.615 119.886 148.838C125.875 146.619 130.003 148.642 129.084 153.639Z" fill="#FCAF15"/>
<path d="M118.436 161.006H118.435H118.436ZM124.538 154.651C124.761 154.091 124.932 153.5 125.046 152.883C125.471 150.577 124.809 148.914 123.395 147.999C123.708 147.969 124.01 147.955 124.302 147.955C127.728 147.955 129.732 149.985 129.094 153.583C129.298 152.434 129.224 151.45 128.928 150.633C127.89 152.243 126.331 153.724 124.538 154.651ZM129.088 153.621C129.088 153.619 129.089 153.617 129.089 153.614C129.089 153.617 129.088 153.618 129.088 153.621ZM129.092 153.603C129.092 153.597 129.093 153.591 129.094 153.585C129.093 153.591 129.092 153.597 129.092 153.603Z" fill="#FED78A"/>
<path d="M118.451 161.009C118.446 161.008 118.442 161.007 118.436 161.006C118.44 161.007 118.446 161.008 118.451 161.009ZM128.502 155.586C128.762 154.973 128.959 154.322 129.084 153.639C129.086 153.634 129.087 153.627 129.088 153.621C129.087 153.627 129.086 153.633 129.084 153.639C128.959 154.322 128.762 154.973 128.502 155.586Z" fill="#D18126"/>
<path d="M111.148 150.282C111.148 150.279 111.148 150.276 111.15 150.273C111.148 150.276 111.148 150.279 111.148 150.282Z" fill="#6D184E"/>
<path d="M118.436 161.006C113.491 160.072 110.229 155.274 111.147 150.282C111.147 150.28 111.148 150.277 111.148 150.274C111.43 148.754 111.879 148.206 112.514 148.121C113.431 151.378 115.936 154.865 119.46 155.525C119.881 155.604 120.3 155.641 120.72 155.641C122.04 155.641 123.342 155.269 124.538 154.651C123.204 157.991 120.031 160.238 116.477 160.392C117.093 160.663 117.746 160.875 118.436 161.006ZM129.089 153.614C129.09 153.611 129.091 153.607 129.091 153.603C129.091 153.607 129.09 153.611 129.089 153.614ZM129.095 153.585C129.095 153.585 129.095 153.584 129.095 153.583C129.095 153.584 129.095 153.585 129.095 153.585Z" fill="#D18126"/>
<path d="M120.184 161.165C123.807 161.141 127.085 158.932 128.502 155.586C127.085 158.933 123.807 161.142 120.184 161.165Z" fill="#D3B392"/>
<path d="M120.126 161.165C119.574 161.165 119.013 161.114 118.452 161.009C118.446 161.008 118.441 161.007 118.436 161.006H118.435C117.747 160.875 117.093 160.663 116.477 160.392C120.032 160.238 123.203 157.991 124.539 154.651C126.331 153.724 127.89 152.243 128.928 150.633C129.223 151.45 129.298 152.434 129.095 153.583C129.095 153.584 129.095 153.585 129.095 153.585C129.093 153.591 129.093 153.597 129.092 153.603C129.09 153.607 129.09 153.611 129.089 153.614C129.089 153.617 129.088 153.619 129.088 153.621C129.087 153.627 129.086 153.633 129.084 153.639C128.96 154.322 128.761 154.973 128.503 155.586C127.085 158.932 123.807 161.141 120.184 161.165C120.163 161.165 120.145 161.165 120.126 161.165Z" fill="#D29D78"/>
<path d="M112.925 149.754C112.867 149.906 112.789 150.163 112.713 150.576C112.347 152.571 112.772 154.589 113.91 156.262C115.049 157.933 116.765 159.057 118.742 159.428C120.72 159.797 122.72 159.369 124.378 158.22C126.036 157.072 127.15 155.34 127.517 153.346C127.696 152.368 127.722 151.043 126.825 150.278C125.665 149.291 123.217 149.318 120.435 150.348C117.578 151.407 115.314 150.59 113.815 150.05C113.531 149.947 113.171 149.817 112.925 149.754ZM120.138 162.775C119.482 162.775 118.82 162.714 118.159 162.59C115.347 162.063 112.904 160.463 111.283 158.083C109.661 155.703 109.056 152.829 109.578 149.989C109.782 148.883 110.163 147.528 111.317 146.858C112.512 146.163 113.774 146.62 114.889 147.022C116.204 147.495 117.564 147.986 119.336 147.33C123.308 145.858 126.786 146.037 128.881 147.821C130.495 149.195 131.123 151.366 130.651 153.933C130.13 156.772 128.542 159.236 126.184 160.871C124.377 162.123 122.283 162.775 120.138 162.775Z" fill="#6D184E"/>
<path d="M140.947 90.2566C141.591 90.555 142.344 90.4787 142.954 90.1178C145.476 88.6229 153.532 83.683 154.889 80.7696C156.401 77.5203 136.394 88.1468 140.947 90.2566Z" fill="#E5525F"/>
</svg>
