<?xml version="1.0" standalone="no"?>
<!DOCTYPE svg PUBLIC "-//W3C//DTD SVG 20010904//EN"
 "http://www.w3.org/TR/2001/REC-SVG-20010904/DTD/svg10.dtd">
<svg version="1.0" xmlns="http://www.w3.org/2000/svg"
 width="712.000000pt" height="712.000000pt" viewBox="0 0 712.000000 712.000000"
 preserveAspectRatio="xMidYMid meet">
<metadata>
Created by potrace 1.14, written by Peter Selinger 2001-2017
</metadata>
<g transform="translate(0.000000,712.000000) scale(0.100000,-0.100000)"
fill="#000000" stroke="none">
<path d="M3135 6799 c-640 -43 -1231 -280 -1732 -696 -118 -98 -343 -326 -437
-443 -354 -443 -579 -981 -651 -1560 -27 -218 -22 -618 11 -806 5 -28 1 -34
-64 -81 -72 -53 -139 -128 -173 -195 -55 -108 -64 -285 -18 -373 29 -57 91
-109 152 -127 23 -6 44 -13 46 -14 2 -2 -18 -27 -43 -56 -63 -71 -118 -184
-124 -252 -4 -45 -1 -56 20 -80 39 -46 99 -46 233 2 61 22 117 42 126 46 14 6
20 -3 34 -46 10 -29 26 -70 37 -91 24 -48 19 -63 -24 -71 -52 -10 -140 -54
-176 -89 -19 -18 -46 -54 -60 -82 -23 -43 -27 -63 -27 -136 0 -76 3 -90 27
-126 37 -56 103 -96 226 -138 59 -19 122 -44 139 -55 33 -19 33 -21 33 -97 1
-189 33 -298 106 -362 73 -64 162 -76 299 -41 l78 20 86 -92 c112 -119 217
-196 366 -268 173 -85 321 -130 540 -166 134 -21 550 -30 727 -15 420 37 939
157 1368 316 66 25 123 45 125 45 3 0 5 -6 5 -14 0 -36 74 -156 125 -205 165
-156 412 -158 576 -5 60 57 94 113 120 195 36 117 17 210 -57 278 -24 23 -50
41 -58 41 -42 0 -12 25 112 92 494 270 898 562 1187 859 291 299 447 564 512
869 28 135 24 317 -10 452 l-28 107 41 53 c139 175 157 397 44 545 l-25 32 28
7 c66 14 94 27 113 51 67 85 -45 287 -227 411 l-61 41 9 47 c23 120 -58 355
-163 478 -119 138 -300 192 -554 163 l-70 -8 -17 54 c-22 69 -113 215 -241
387 -118 159 -377 425 -536 550 -494 390 -1068 609 -1706 650 -174 11 -193 11
-369 -1z m625 -148 c512 -80 979 -283 1380 -601 273 -216 626 -636 721 -857
49 -116 45 -263 -11 -382 -59 -125 -211 -321 -408 -530 -427 -450 -987 -830
-1642 -1113 -503 -218 -961 -346 -1482 -415 -206 -27 -752 -25 -939 5 -184 28
-346 65 -497 114 -211 67 -283 112 -354 222 -80 125 -103 272 -102 661 0 304
15 434 78 690 305 1230 1337 2116 2596 2229 25 2 153 2 285 1 181 -3 273 -9
375 -24z m2574 -1616 c84 -18 141 -50 196 -112 48 -54 102 -162 125 -249 59
-226 -18 -273 -647 -404 -229 -47 -317 -74 -377 -114 -83 -56 -97 -118 -61
-268 36 -148 23 -280 -39 -413 -53 -113 -117 -162 -240 -185 -69 -12 -142 -8
-333 21 -174 26 -262 25 -312 -4 -80 -46 -93 -122 -50 -284 79 -296 -9 -565
-218 -667 -96 -47 -222 -52 -358 -16 -25 7 -148 53 -275 102 -253 100 -344
128 -421 128 -121 0 -228 -64 -331 -197 -80 -103 -144 -161 -231 -206 -206
-109 -453 -82 -648 68 -32 25 -91 81 -131 124 -85 92 -148 126 -222 119 -82
-8 -120 -34 -271 -187 -206 -209 -266 -252 -389 -281 -100 -24 -253 8 -280 58
-21 40 -12 127 25 244 63 200 56 271 -30 309 -43 19 -54 19 -203 8 -277 -20
-377 -5 -427 64 -17 23 -21 42 -20 108 1 71 6 89 38 154 26 52 52 88 89 119
28 26 56 46 62 46 5 0 23 -26 40 -58 42 -83 163 -201 250 -244 135 -67 389
-141 616 -177 428 -69 872 -66 1294 9 764 136 1498 427 2155 853 481 313 856
666 1157 1092 112 159 153 258 153 372 0 28 5 55 11 58 39 25 208 30 303 10z
m428 -694 c63 -40 124 -96 158 -146 31 -44 48 -95 33 -95 -35 0 -271 -35 -378
-56 -223 -44 -433 -114 -702 -234 -142 -63 -153 -67 -153 -47 0 12 -11 74 -24
137 -17 81 -21 120 -14 133 19 37 94 59 418 128 135 28 289 64 344 81 103 30
223 85 245 112 18 21 20 21 73 -13z m16 -415 c39 -21 89 -75 106 -118 10 -22
16 -67 16 -111 0 -65 -4 -83 -34 -143 -57 -113 -127 -175 -302 -262 -187 -94
-197 -114 -195 -390 1 -198 -6 -240 -50 -276 -47 -40 -119 -55 -309 -67 -299
-17 -432 -50 -543 -133 -64 -48 -124 -114 -267 -296 -170 -215 -218 -257 -328
-289 -78 -23 -191 -34 -211 -22 -18 12 -32 162 -25 271 7 103 31 251 42 262 4
4 84 46 178 91 511 252 1164 653 1415 869 155 133 270 336 310 545 l11 61 47
10 c68 14 109 14 139 -2z m-588 -312 c0 -42 -162 -180 -364 -308 -95 -61 -126
-76 -157 -76 -50 0 -64 23 -42 68 35 72 241 211 442 298 84 37 121 43 121 18z
m567 -435 c50 -167 11 -423 -102 -664 -153 -329 -513 -693 -1020 -1030 -270
-179 -434 -274 -730 -421 l-251 -124 -58 20 c-118 40 -166 22 -201 -76 l-21
-59 -129 -48 c-506 -188 -1061 -308 -1505 -325 -522 -21 -890 55 -1185 246
-72 46 -225 187 -225 206 0 6 31 24 67 41 37 16 141 74 232 128 246 145 259
146 334 30 119 -185 281 -249 435 -172 76 38 151 118 198 211 120 238 297 239
732 4 85 -46 172 -66 282 -66 187 0 325 53 471 182 61 54 95 77 107 74 9 -3
42 -31 72 -62 185 -189 410 -203 495 -30 25 51 27 64 22 130 -4 61 -45 205
-81 287 -6 14 4 17 65 23 89 9 188 39 254 76 83 48 151 115 278 279 67 85 148
183 179 217 107 114 230 156 494 168 287 14 384 41 458 128 60 69 68 109 73
328 2 107 9 207 14 221 7 19 36 39 112 76 56 28 106 50 111 49 5 -1 15 -22 23
-47z m-1830 5 c22 -6 21 -9 -27 -70 -28 -36 -73 -98 -100 -140 l-49 -75 -6 38
c-4 21 -16 72 -26 115 -10 42 -19 93 -19 114 l0 37 103 -6 c56 -4 112 -9 124
-13z m-4172 -686 c3 -7 -1 -35 -8 -62 -13 -49 -14 -50 -72 -69 -33 -11 -145
-51 -249 -89 -103 -38 -191 -67 -193 -64 -12 12 59 119 129 191 l76 80 144 11
c78 6 149 12 156 13 7 0 15 -5 17 -11z m2664 -73 c32 -8 131 -44 222 -81 209
-84 287 -113 374 -135 90 -24 250 -25 326 -3 61 18 145 58 172 82 17 15 17 13
10 -44 -4 -32 -8 -138 -8 -234 1 -205 13 -275 82 -450 59 -148 68 -231 31
-275 -20 -23 -33 -28 -69 -28 -70 0 -131 34 -228 127 -131 126 -176 126 -307
5 -146 -136 -238 -174 -419 -173 -90 0 -120 4 -164 22 -126 52 -219 145 -413
411 -79 108 -174 233 -211 279 -38 46 -67 85 -65 87 2 1 26 14 53 28 110 55
194 131 317 287 79 99 169 128 297 95z m-2736 -637 c206 -286 538 -435 884
-398 297 32 892 157 1274 267 11 3 38 -26 90 -98 41 -57 77 -108 81 -114 5 -8
-19 -7 -75 3 -205 35 -354 -42 -455 -235 -24 -47 -60 -97 -86 -121 -113 -104
-218 -72 -335 102 -62 92 -118 129 -196 128 -67 0 -120 -23 -300 -132 -346
-208 -598 -293 -680 -228 -44 35 -57 80 -64 233 -5 102 -12 149 -24 172 -25
47 -95 90 -205 127 -118 40 -178 70 -192 95 -15 28 -12 107 4 139 30 57 77 87
169 107 34 7 63 14 64 14 1 1 22 -27 46 -61z m4363 -943 c48 -20 67 -66 54
-134 -45 -236 -315 -331 -491 -174 -72 65 -99 126 -99 224 0 42 2 78 5 81 3 3
34 -3 68 -14 75 -24 176 -20 282 11 85 24 134 26 181 6z"/>
</g>
</svg>
